<svg xmlns="http://www.w3.org/2000/svg" viewBox="0 0 170.8 207"><title>asdasdasdAsset 1</title><g id="Layer_2" data-name="Layer 2"><g id="Layer_1-2" data-name="Layer 1"><circle cx="84.48" cy="20" r="20"/><rect x="9.38" y="42.77" width="58.48" height="18.61" rx="8.5" transform="translate(6.78 -4.4) rotate(7.15)"/><rect x="-13.48" y="21.88" width="53.43" height="18.61" rx="8.5" transform="translate(40.81 11.52) rotate(77.5)"/><rect x="102.94" y="41.77" width="58.48" height="18.61" rx="8.5" transform="translate(269.69 85.32) rotate(172.85)"/><rect x="130.86" y="20.88" width="53.43" height="18.61" rx="8.5" transform="translate(221.15 -117.11) rotate(102.5)"/></g><g id="Layer_2-2" data-name="Layer 2"><rect x="50.05" y="113.5" width="23.93" height="93.5" rx="11.96" transform="translate(124.03 320.5) rotate(180)"/><path d="M119,125.46V195a12,12,0,0,1-23.93,0V125.46a12,12,0,0,1,23.93,0Z"/><path d="M34.2,130.21H48v12.58H34.2a6.3,6.3,0,0,1,0-12.58Z"/><path d="M140,136.5a5.91,5.91,0,0,1-5.77,6H121V130.47H134.2A5.91,5.91,0,0,1,140,136.5Z"/><rect x="50.05" y="129.5" width="23.93" height="14"/><rect x="67.98" y="129.5" width="34" height="14"/><path d="M127.65,94.79h0c3.28-1.33,6.9.55,8.09,4.18l29.31,89.27c1.19,3.63-.5,7.65-3.77,9h0c-3.28,1.33-6.9-.55-8.1-4.18l-29.3-89.27A7.22,7.22,0,0,1,127.65,94.79Z"/><path d="M145.92,110.27h0c1-.44,2.45.92,3.16,3l17.49,51.82c.72,2.11.46,4.17-.58,4.61h0c-1,.44-2.44-.92-3.15-3l-17.5-51.82C144.63,112.77,144.89,110.71,145.92,110.27Z"/><path d="M23.25,110.27h0c-1-.44-2.44.92-3.16,3L2.6,165.12c-.71,2.11-.45,4.17.58,4.61h0c1,.44,2.45-.92,3.16-3l17.49-51.82C24.54,112.77,24.28,110.71,23.25,110.27Z"/><path d="M41.31,95.79h0c-3.27-1.33-6.9.55-8.09,4.18L3.91,189.24c-1.19,3.63.5,7.65,3.78,9h0c3.27,1.33,6.9-.55,8.09-4.18l29.31-89.27C46.28,101.13,44.59,97.11,41.31,95.79Z"/><path d="M96.52,129.5h-25c-5.85,0-10.88-4.78-12-11.4L50.26,62.19c-1.45-8.66,4.32-16.69,12-16.69A83,83,0,0,0,84,48.5a83.22,83.22,0,0,0,22.53-3A13,13,0,0,1,116,50.67a15.58,15.58,0,0,1,2.49,11.7l-10,55.91C107.31,124.81,102.32,129.5,96.52,129.5Z"/></g></g></svg>